<svg id="Capa_1" enable-background="new 0 0 512 512" height="512" viewBox="0 0 512 512" width="512" xmlns="http://www.w3.org/2000/svg"><g><path d="m421 0h-270c-8.284 0-15 6.716-15 15v45h-45c-8.284 0-15 6.716-15 15v422c0 8.284 6.716 15 15 15h330c8.283 0 15-6.716 15-15v-482c0-8.284-6.717-15-15-15zm-255 30h240v264h-30v-219c0-8.284-6.717-15-15-15h-195zm180 60v204h-135.73l-15.854-31.708c-2.54-5.082-7.734-8.292-13.416-8.292h-75v-164zm-240 392v-198h65.73l15.854 31.708c2.54 5.082 7.734 8.292 13.416 8.292h205v77h-166c-8.284 0-15 6.716-15 15s6.716 15 15 15h166v51z"/><path d="m181 164h90c8.283 0 15-6.716 15-15s-6.717-15-15-15h-90c-8.284 0-15 6.716-15 15s6.716 15 15 15z"/><path d="m181 224h90c8.283 0 15-6.716 15-15s-6.717-15-15-15h-90c-8.284 0-15 6.716-15 15s6.716 15 15 15z"/></g></svg>