<svg id="Capa_1" enable-background="new 0 0 511.875 511.875" height="512" viewBox="0 0 511.875 511.875" width="512" xmlns="http://www.w3.org/2000/svg"><path d="m466.938 351.875c8.284 0 15-6.716 15-15v-90c0-8.284-6.716-15-15-15h-60v-55c0-8.284-6.716-15-15-15h-121v-41.875h60c8.284 0 15-6.716 15-15v-90c0-8.284-6.716-15-15-15h-150c-8.284 0-15 6.716-15 15v90c0 8.284 6.716 15 15 15h60v41.875h-121c-8.284 0-15 6.716-15 15v55h-60c-8.284 0-15 6.716-15 15v90c0 8.284 6.716 15 15 15h60v40h-60c-8.284 0-15 6.716-15 15v90c0 8.284 6.716 15 15 15h150c8.284 0 15-6.716 15-15v-90c0-8.284-6.716-15-15-15h-60v-40h60c8.284 0 15-6.716 15-15v-90c0-8.284-6.716-15-15-15h-60v-40h242v40h-60c-8.284 0-15 6.716-15 15v90c0 8.284 6.716 15 15 15h60v40h-60c-8.284 0-15 6.716-15 15v90c0 8.284 6.716 15 15 15h150c8.284 0 15-6.716 15-15v-90c0-8.284-6.716-15-15-15h-60v-40zm-271-321.875h120v60h-120zm-16 451.875h-120v-60h120zm0-160h-120v-60h120zm272 160h-120v-60h120zm-120-220h120v60h-120z"/></svg>