<svg id="Capa_1" enable-background="new 0 0 513 513" height="512" viewBox="0 0 513 513" width="512" xmlns="http://www.w3.org/2000/svg"><g><path d="m241 327.5h-151c-8.284 0-15 6.716-15 15s6.716 15 15 15h151c8.284 0 15-6.716 15-15s-6.716-15-15-15z"/><path d="m90 297.5h181c8.284 0 15-6.716 15-15s-6.716-15-15-15h-181c-8.284 0-15 6.716-15 15s6.716 15 15 15z"/><path d="m90 236.5h211c8.284 0 15-6.716 15-15v-61c0-8.284-6.716-15-15-15h-211c-8.284 0-15 6.716-15 15v61c0 8.284 6.716 15 15 15zm15-61h181v31h-181z"/><path d="m498 397.5h-31.9l-75.1-184.969v-172.031c0-8.284-6.716-15-15-15h-361c-8.284 0-15 6.716-15 15v372c0 8.284 6.716 15 15 15h226v45c0 8.284 6.716 15 15 15h242c8.284 0 15-6.716 15-15v-60c0-8.284-6.716-15-15-15zm-122-142.164 25.841 63.645h-51.682zm-38.022 93.644h76.043l19.699 48.52h-115.441zm23.022-263.48h-30v-30h30zm-60-30v30h-271v-30zm-271 60h331v97.031l-75.1 184.969h-255.9zm453 342h-212v-30h212z"/></g></svg>